<svg xmlns="http://www.w3.org/2000/svg" viewBox="0 0 540 540" height="540" width="540">
<path d="M420.125 57.5c.125-2.75-1-4.75-3.5-6.25-2.5-1.75-5-2-7.25-1L385.875 61l-5.75-3-4-25.5c-.5-2.75-2.125-4.5-4.75-5.5-2.75-1.25-5.125-1-7.25.5L343.25 42.75l-6.25-2-8.875-24c-1.125-2.5-3-4.125-5.75-4.75-2.875-.5-5.25.125-7 2l-17.5 19-6.5-.5-13.5-22c-1.375-2.25-3.5-3.25-6.5-3.25s-5.25 1-6.5 3.25l-13.5 22-6.5.5-17.5-19c-1.875-1.875-4.25-2.5-7-2-2.875.625-4.75 2.25-5.75 4.75l-9 24-6.25 2-20.75-15.25c-2.25-1.5-4.625-1.75-7.375-.5-2.625 1-4.125 2.75-4.625 5.5L162.5 58l-5.625 3-23.5-10.75c-2.375-1-4.75-.75-7.25 1-2.5 1.5-3.75 3.5-3.5 6.25l1 25.75-5 4.25-25.25-6c-2.5-.75-4.75 0-6.875 2.25-2.125 2-2.875 4.25-2.125 6.75l5.875 25.25-4.125 5-25.75-1c-2.75 0-4.75 1.125-6.25 3.5-1.75 2.5-2 4.875-1 7.25l10.75 23.5-3 5.75-25.5 4c-2.75.5-4.5 2-5.5 4.75-1.25 2.625-1 5 .5 7.25l15.25 20.75-2.125 6.25-23.875 9c-2.5 1-4 2.875-4.5 5.75-.75 3 0 5.25 2 7l18.75 17.5-.5 6.5-22 13.5c-2.25 1.25-3.375 3.5-3.375 6.5s1.125 5.125 3.375 6.5l22 13.5.5 6.5-18.75 17.5c-2 1.625-2.75 4-2 7 .5 2.75 2 4.75 4.5 5.75l23.875 9 2.125 6.25-15.25 20.75c-1.5 2.125-1.75 4.625-.5 7.25 1 2.75 2.75 4.375 5.5 4.75l25.5 4 3 5.75-10.75 23.5c-1 2.25-.75 4.75 1 7.25 1.5 2.5 3.5 3.625 6.25 3.5l25.75-1 4.125 5-5.875 25.25c-.75 2.5 0 4.75 2.125 6.75 2.125 2.125 4.375 2.875 6.875 2.25l25.25-6 5 4.25-1 25.75c-.25 2.625 1 4.75 3.5 6.25 2.5 1.625 4.875 2 7.25 1l23.5-10.75 5.625 3 4.125 25.5c.5 2.625 2 4.5 4.625 5.5 2.75 1.125 5.125 1 7.375-.5l20.75-15.25 6.25 2 9 24c1 2.5 2.875 4.125 5.75 4.75 3 .5 5.25-.25 7-2.25l17.5-18.75 6.5.5 13.5 22c1.25 2.25 3.5 3.5 6.5 3.5s5.125-1.25 6.5-3.5l13.5-22 6.5-.5 17.5 18.75c1.625 2 4 2.75 7 2.25 2.75-.625 4.625-2.25 5.75-4.75l8.875-24 6.25-2 20.875 15.25c2.125 1.5 4.5 1.625 7.25.5 2.625-1 4.25-2.875 4.75-5.5l4-25.5 5.75-3 23.5 10.75c2.25 1 4.75.625 7.25-1 2.5-1.5 3.625-3.625 3.5-6.25l-1-25.75 5-4.25 25.25 6c2.5.625 4.75-.125 6.75-2.25 2.125-2 2.875-4.25 2.25-6.75l-6-25.25 4.25-5 25.75 1c2.625.125 4.75-1 6.25-3.5 1.625-2.5 2-5 1-7.25l-10.75-23.5 3-5.75 25.5-4c2.625-.375 4.5-2 5.5-4.75 1.125-2.625 1-5.125-.5-7.25l-15.25-20.75 2-6.25 24-9c2.5-1 4-3 4.75-5.75.5-3-.25-5.375-2.25-7l-18.75-17.5.5-6.5 22-13.5c2.25-1.375 3.5-3.5 3.5-6.5s-1.25-5.25-3.5-6.5l-22-13.5-.5-6.5 18.75-17.5c2-1.75 2.75-4 2.25-7-.75-2.875-2.25-4.75-4.75-5.75l-24-9-2-6.25 15.25-20.75c1.5-2.25 1.625-4.625.5-7.25-1-2.75-2.875-4.25-5.5-4.75l-25.5-4-3-5.75 10.75-23.5c1-2.375.625-4.75-1-7.25-1.5-2.5-3.625-3.75-6.25-3.5l-25.75 1-4.25-5 6-25.25c.625-2.5-.125-4.75-2.25-6.75-2-2.25-4.25-3-6.75-2.25l-25.25 6-5-4.25 1-25.75M271.5 76.75c52.875 0 98.125 18.75 135.625 56.125 37.5 37.5 56.25 82.75 56.25 135.75 0 52.875-18.75 98.125-56.25 135.625S324.375 460.5 271.5 460.5c-53 0-98.375-18.75-135.75-56.25-37.5-37.5-56.25-82.75-56.125-135.625-.125-53 18.625-98.25 56.125-135.75C173.125 95.5 218.5 76.75 271.5 76.75z"/>
<path d="M235.625 457.25v33.875h70.75V457.25l-24-25.25c-6.5-6.75-13.125-6.875-20-.25l-26.75 25.5M260 455.375c3.125-3.25 7.125-4.875 11.625-4.875 4.625 0 8.5 1.625 11.75 4.875 3.25 3.125 4.875 7.125 4.875 11.625 0 4.625-1.625 8.5-4.875 11.75s-7.125 4.875-11.75 4.875c-4.5 0-8.5-1.625-11.625-4.875-3.25-3.25-4.875-7.125-4.875-11.75 0-4.5 1.625-8.5 4.875-11.625z"/>
<path d="M271.625 450.5c-4.5 0-8.5 1.625-11.625 4.875-3.25 3.125-4.875 7.125-4.875 11.625 0 4.625 1.625 8.5 4.875 11.75 3.125 3.25 7.125 4.875 11.625 4.875 4.625 0 8.5-1.625 11.75-4.875s4.875-7.125 4.875-11.75c0-4.5-1.625-8.5-4.875-11.625-3.25-3.25-7.125-4.875-11.75-4.875z" fill="#fff"/>
<path d="M460.125 304.25H494V233.5h-33.875l-25.25 24c-6.75 6.5-6.875 13.25-.25 20l25.5 26.75M458.25 280c-3.25-3.25-4.875-7.125-4.875-11.75 0-4.5 1.625-8.5 4.875-11.75 3.125-3.125 7.125-4.75 11.625-4.75 4.625 0 8.5 1.625 11.75 4.75 3.25 3.25 4.875 7.25 4.875 11.75 0 4.625-1.625 8.5-4.875 11.75s-7.125 4.875-11.75 4.875c-4.5 0-8.5-1.625-11.625-4.875z"/>
<path d="M453.375 268.25c0 4.625 1.625 8.5 4.875 11.75 3.125 3.25 7.125 4.875 11.625 4.875 4.625 0 8.5-1.625 11.75-4.875s4.875-7.125 4.875-11.75c0-4.5-1.625-8.5-4.875-11.75-3.25-3.125-7.125-4.75-11.75-4.75-4.5 0-8.5 1.625-11.625 4.75-3.25 3.25-4.875 7.25-4.875 11.75z" fill="#fff"/>
<path d="M307.125 80V46.125h-70.75V80l24 25.25c6.5 6.75 13.25 6.875 20 .25l26.75-25.5m-24.25 1.875c-3.25 3.25-7.125 4.875-11.75 4.875-4.5 0-8.5-1.625-11.75-4.875-3.125-3.125-4.75-7.125-4.75-11.625 0-4.625 1.625-8.5 4.75-11.75 3.25-3.25 7.25-4.875 11.75-4.875 4.625 0 8.5 1.625 11.75 4.875s4.875 7.125 4.875 11.75c0 4.5-1.625 8.5-4.875 11.625z"/>
<path d="M271.125 86.75c4.625 0 8.5-1.625 11.75-4.875 3.25-3.125 4.875-7.125 4.875-11.625 0-4.625-1.625-8.5-4.875-11.75s-7.125-4.875-11.75-4.875c-4.5 0-8.5 1.625-11.75 4.875-3.125 3.25-4.75 7.125-4.75 11.75 0 4.5 1.625 8.5 4.75 11.625 3.25 3.25 7.25 4.875 11.75 4.875z" fill="#fff"/>
<path d="M82.75 233H48.875v70.75H82.75l25.25-24c6.75-6.5 6.875-13.125.25-20L82.75 233m1.875 24.375C87.875 260.5 89.5 264.5 89.5 269c0 4.625-1.625 8.5-4.875 11.75C81.5 284 77.5 285.625 73 285.625c-4.625 0-8.5-1.625-11.75-4.875s-4.875-7.125-4.875-11.75c0-4.5 1.625-8.5 4.875-11.625 3.25-3.25 7.125-4.875 11.75-4.875 4.5 0 8.5 1.625 11.625 4.875z"/>
<path d="M89.5 269c0-4.5-1.625-8.5-4.875-11.625C81.5 254.125 77.5 252.5 73 252.5c-4.625 0-8.5 1.625-11.75 4.875C58 260.5 56.375 264.5 56.375 269c0 4.625 1.625 8.5 4.875 11.75s7.125 4.875 11.75 4.875c4.5 0 8.5-1.625 11.625-4.875 3.25-3.25 4.875-7.125 4.875-11.75z" fill="#fff"/>
<path d="M395.5 185.75c2.625-7.875 2-14.5-2-20.125-3.75-5.5-9.875-8.375-18.125-8.625h-294.5L59.5 215.75H322l-8.5 23.5h-125l-41 112.375c-2.625 7.75-2 14.5 1.875 20 4 5.5 10 8.375 18.125 8.625h294.625L483.5 321.5H221l8.625-23.5H354.5l41-112.25z"/>
</svg>
